<?xml version="1.0" encoding="UTF-8" standalone="no"?>
<!DOCTYPE svg PUBLIC "-//W3C//DTD SVG 1.1//EN"
 "http://www.w3.org/Graphics/SVG/1.1/DTD/svg11.dtd">
<!-- Generated by graphviz version 2.28.0 (20110509.1545)
 -->
<!-- Title: controllers_diagram Pages: 1 -->
<svg width="611pt" height="652pt"
 viewBox="0.00 0.00 610.90 652.20" xmlns="http://www.w3.org/2000/svg" xmlns:xlink="http://www.w3.org/1999/xlink">
<g id="graph1" class="graph" transform="scale(1 1) rotate(0) translate(4 648.2)">
<title>controllers_diagram</title>
<polygon fill="white" stroke="white" points="-4,5 -4,-648.2 607.899,-648.2 607.899,5 -4,5"/>
<!-- _diagram_info -->
<g id="node1" class="node"><title>_diagram_info</title>
<text text-anchor="start" x="404" y="-69" font-family="Times,serif" font-size="13.00">Controllers diagram</text>
<text text-anchor="start" x="404" y="-53.4" font-family="Times,serif" font-size="13.00">Date: Aug 06 2011 &#45; 13:43</text>
<text text-anchor="start" x="404" y="-37.8" font-family="Times,serif" font-size="13.00">Migration version: 20110719105320</text>
<text text-anchor="start" x="404" y="-22.2" font-family="Times,serif" font-size="13.00">Generated by RailRoady 1.0.2</text>
<text text-anchor="start" x="404" y="-6.6" font-family="Times,serif" font-size="13.00">http://railroady.prestonlee.com</text>
</g>
<!-- ApplicationController -->
<g id="node2" class="node"><title>ApplicationController</title>
<polyline fill="none" stroke="black" points="166,-440.5 344.635,-440.5 "/>
<path fill="none" stroke="black" d="M344.635,-440.5C350.635,-440.5 356.635,-446.5 356.635,-452.5"/>
<polyline fill="none" stroke="black" points="356.635,-452.5 356.635,-594.9 "/>
<path fill="none" stroke="black" d="M356.635,-594.9C356.635,-600.9 350.635,-606.9 344.635,-606.9"/>
<polyline fill="none" stroke="black" points="344.635,-606.9 166,-606.9 "/>
<path fill="none" stroke="black" d="M166,-606.9C160,-606.9 154,-600.9 154,-594.9"/>
<polyline fill="none" stroke="black" points="154,-594.9 154,-452.5 "/>
<path fill="none" stroke="black" d="M154,-452.5C154,-446.5 160,-440.5 166,-440.5"/>
<text text-anchor="middle" x="255.317" y="-588.9" font-family="Times,serif" font-size="14.00">ApplicationController</text>
<polyline fill="none" stroke="black" points="154,-582.1 356.635,-582.1 "/>
<text text-anchor="start" x="162" y="-564.1" font-family="Times,serif" font-size="14.00">_one_time_conditions_valid_20?</text>
<polyline fill="none" stroke="black" points="154,-557.3 356.635,-557.3 "/>
<text text-anchor="start" x="162" y="-539.3" font-family="Times,serif" font-size="14.00">access_denied</text>
<text text-anchor="start" x="162" y="-522.5" font-family="Times,serif" font-size="14.00">authenticate</text>
<text text-anchor="start" x="162" y="-505.7" font-family="Times,serif" font-size="14.00">current_user</text>
<text text-anchor="start" x="162" y="-488.9" font-family="Times,serif" font-size="14.00">logged_in?</text>
<polyline fill="none" stroke="black" points="154,-482.1 356.635,-482.1 "/>
<text text-anchor="start" x="162" y="-464.1" font-family="Times,serif" font-size="14.00">_layout</text>
<text text-anchor="start" x="162" y="-447.3" font-family="Times,serif" font-size="14.00">_run_process_action_callbacks</text>
</g>
<!-- CategoriesController -->
<g id="node3" class="node"><title>CategoriesController</title>
<polyline fill="none" stroke="black" points="408,-132.5 586.635,-132.5 "/>
<path fill="none" stroke="black" d="M586.635,-132.5C592.635,-132.5 598.635,-138.5 598.635,-144.5"/>
<polyline fill="none" stroke="black" points="598.635,-144.5 598.635,-353.3 "/>
<path fill="none" stroke="black" d="M598.635,-353.3C598.635,-359.3 592.635,-365.3 586.635,-365.3"/>
<polyline fill="none" stroke="black" points="586.635,-365.3 408,-365.3 "/>
<path fill="none" stroke="black" d="M408,-365.3C402,-365.3 396,-359.3 396,-353.3"/>
<polyline fill="none" stroke="black" points="396,-353.3 396,-144.5 "/>
<path fill="none" stroke="black" d="M396,-144.5C396,-138.5 402,-132.5 408,-132.5"/>
<text text-anchor="middle" x="497.317" y="-347.3" font-family="Times,serif" font-size="14.00">CategoriesController</text>
<polyline fill="none" stroke="black" points="396,-340.5 598.635,-340.5 "/>
<text text-anchor="start" x="404" y="-322.5" font-family="Times,serif" font-size="14.00">_one_time_conditions_valid_22?</text>
<text text-anchor="start" x="404" y="-305.7" font-family="Times,serif" font-size="14.00">create</text>
<text text-anchor="start" x="404" y="-288.9" font-family="Times,serif" font-size="14.00">destroy</text>
<text text-anchor="start" x="404" y="-272.1" font-family="Times,serif" font-size="14.00">edit</text>
<text text-anchor="start" x="404" y="-255.3" font-family="Times,serif" font-size="14.00">index</text>
<text text-anchor="start" x="404" y="-238.5" font-family="Times,serif" font-size="14.00">new</text>
<text text-anchor="start" x="404" y="-221.7" font-family="Times,serif" font-size="14.00">show</text>
<text text-anchor="start" x="404" y="-204.9" font-family="Times,serif" font-size="14.00">update</text>
<polyline fill="none" stroke="black" points="396,-198.1 598.635,-198.1 "/>
<polyline fill="none" stroke="black" points="396,-174.1 598.635,-174.1 "/>
<text text-anchor="start" x="404" y="-156.1" font-family="Times,serif" font-size="14.00">_layout</text>
<text text-anchor="start" x="404" y="-139.3" font-family="Times,serif" font-size="14.00">_run_process_action_callbacks</text>
</g>
<!-- PlacesController -->
<g id="node4" class="node"><title>PlacesController</title>
<polyline fill="none" stroke="black" points="166,-110.5 344.635,-110.5 "/>
<path fill="none" stroke="black" d="M344.635,-110.5C350.635,-110.5 356.635,-116.5 356.635,-122.5"/>
<polyline fill="none" stroke="black" points="356.635,-122.5 356.635,-381.7 "/>
<path fill="none" stroke="black" d="M356.635,-381.7C356.635,-387.7 350.635,-393.7 344.635,-393.7"/>
<polyline fill="none" stroke="black" points="344.635,-393.7 166,-393.7 "/>
<path fill="none" stroke="black" d="M166,-393.7C160,-393.7 154,-387.7 154,-381.7"/>
<polyline fill="none" stroke="black" points="154,-381.7 154,-122.5 "/>
<path fill="none" stroke="black" d="M154,-122.5C154,-116.5 160,-110.5 166,-110.5"/>
<text text-anchor="middle" x="255.317" y="-375.7" font-family="Times,serif" font-size="14.00">PlacesController</text>
<polyline fill="none" stroke="black" points="154,-368.9 356.635,-368.9 "/>
<text text-anchor="start" x="162" y="-350.9" font-family="Times,serif" font-size="14.00">_one_time_conditions_valid_24?</text>
<text text-anchor="start" x="162" y="-334.1" font-family="Times,serif" font-size="14.00">create</text>
<text text-anchor="start" x="162" y="-317.3" font-family="Times,serif" font-size="14.00">destroy</text>
<text text-anchor="start" x="162" y="-300.5" font-family="Times,serif" font-size="14.00">edit</text>
<text text-anchor="start" x="162" y="-283.7" font-family="Times,serif" font-size="14.00">home</text>
<text text-anchor="start" x="162" y="-266.9" font-family="Times,serif" font-size="14.00">index</text>
<text text-anchor="start" x="162" y="-250.1" font-family="Times,serif" font-size="14.00">new</text>
<text text-anchor="start" x="162" y="-233.3" font-family="Times,serif" font-size="14.00">result</text>
<text text-anchor="start" x="162" y="-216.5" font-family="Times,serif" font-size="14.00">show</text>
<text text-anchor="start" x="162" y="-199.7" font-family="Times,serif" font-size="14.00">tag</text>
<text text-anchor="start" x="162" y="-182.9" font-family="Times,serif" font-size="14.00">update</text>
<polyline fill="none" stroke="black" points="154,-176.1 356.635,-176.1 "/>
<polyline fill="none" stroke="black" points="154,-152.1 356.635,-152.1 "/>
<text text-anchor="start" x="162" y="-134.1" font-family="Times,serif" font-size="14.00">_layout</text>
<text text-anchor="start" x="162" y="-117.3" font-family="Times,serif" font-size="14.00">_run_process_action_callbacks</text>
</g>
<!-- SessionsController -->
<g id="node5" class="node"><title>SessionsController</title>
<polyline fill="none" stroke="black" points="12,-528.5 109.779,-528.5 "/>
<path fill="none" stroke="black" d="M109.779,-528.5C115.779,-528.5 121.779,-534.5 121.779,-540.5"/>
<polyline fill="none" stroke="black" points="121.779,-540.5 121.779,-631.7 "/>
<path fill="none" stroke="black" d="M121.779,-631.7C121.779,-637.7 115.779,-643.7 109.779,-643.7"/>
<polyline fill="none" stroke="black" points="109.779,-643.7 12,-643.7 "/>
<path fill="none" stroke="black" d="M12,-643.7C6,-643.7 0,-637.7 0,-631.7"/>
<polyline fill="none" stroke="black" points="0,-631.7 0,-540.5 "/>
<path fill="none" stroke="black" d="M0,-540.5C0,-534.5 6,-528.5 12,-528.5"/>
<text text-anchor="middle" x="60.8896" y="-625.7" font-family="Times,serif" font-size="14.00">SessionsController</text>
<polyline fill="none" stroke="black" points="0,-618.9 121.779,-618.9 "/>
<text text-anchor="start" x="8" y="-600.9" font-family="Times,serif" font-size="14.00">create</text>
<text text-anchor="start" x="8" y="-584.1" font-family="Times,serif" font-size="14.00">destroy</text>
<polyline fill="none" stroke="black" points="0,-577.3 121.779,-577.3 "/>
<polyline fill="none" stroke="black" points="0,-553.3 121.779,-553.3 "/>
<text text-anchor="start" x="8" y="-535.3" font-family="Times,serif" font-size="14.00">_layout</text>
</g>
<!-- UsersController -->
<g id="node6" class="node"><title>UsersController</title>
<polyline fill="none" stroke="black" points="408,-396.5 586.635,-396.5 "/>
<path fill="none" stroke="black" d="M586.635,-396.5C592.635,-396.5 598.635,-402.5 598.635,-408.5"/>
<polyline fill="none" stroke="black" points="598.635,-408.5 598.635,-617.3 "/>
<path fill="none" stroke="black" d="M598.635,-617.3C598.635,-623.3 592.635,-629.3 586.635,-629.3"/>
<polyline fill="none" stroke="black" points="586.635,-629.3 408,-629.3 "/>
<path fill="none" stroke="black" d="M408,-629.3C402,-629.3 396,-623.3 396,-617.3"/>
<polyline fill="none" stroke="black" points="396,-617.3 396,-408.5 "/>
<path fill="none" stroke="black" d="M396,-408.5C396,-402.5 402,-396.5 408,-396.5"/>
<text text-anchor="middle" x="497.317" y="-611.3" font-family="Times,serif" font-size="14.00">UsersController</text>
<polyline fill="none" stroke="black" points="396,-604.5 598.635,-604.5 "/>
<text text-anchor="start" x="404" y="-586.5" font-family="Times,serif" font-size="14.00">_one_time_conditions_valid_28?</text>
<text text-anchor="start" x="404" y="-569.7" font-family="Times,serif" font-size="14.00">create</text>
<text text-anchor="start" x="404" y="-552.9" font-family="Times,serif" font-size="14.00">destroy</text>
<text text-anchor="start" x="404" y="-536.1" font-family="Times,serif" font-size="14.00">edit</text>
<text text-anchor="start" x="404" y="-519.3" font-family="Times,serif" font-size="14.00">index</text>
<text text-anchor="start" x="404" y="-502.5" font-family="Times,serif" font-size="14.00">new</text>
<text text-anchor="start" x="404" y="-485.7" font-family="Times,serif" font-size="14.00">show</text>
<text text-anchor="start" x="404" y="-468.9" font-family="Times,serif" font-size="14.00">update</text>
<polyline fill="none" stroke="black" points="396,-462.1 598.635,-462.1 "/>
<polyline fill="none" stroke="black" points="396,-438.1 598.635,-438.1 "/>
<text text-anchor="start" x="404" y="-420.1" font-family="Times,serif" font-size="14.00">_layout</text>
<text text-anchor="start" x="404" y="-403.3" font-family="Times,serif" font-size="14.00">_run_process_action_callbacks</text>
</g>
</g>
</svg>
