<?xml version="1.0" encoding="UTF-8" standalone="no"?>
<!DOCTYPE svg PUBLIC "-//W3C//DTD SVG 1.1//EN"
 "http://www.w3.org/Graphics/SVG/1.1/DTD/svg11.dtd">
<!-- Generated by graphviz version 2.28.0 (20110509.1545)
 -->
<!-- Title: models_diagram Pages: 1 -->
<svg width="452pt" height="238pt"
 viewBox="0.00 0.00 452.00 238.00" xmlns="http://www.w3.org/2000/svg" xmlns:xlink="http://www.w3.org/1999/xlink">
<g id="graph1" class="graph" transform="scale(1 1) rotate(0) translate(4 234)">
<title>models_diagram</title>
<polygon fill="white" stroke="white" points="-4,5 -4,-234 449,-234 449,5 -4,5"/>
<!-- _diagram_info -->
<g id="node1" class="node"><title>_diagram_info</title>
<text text-anchor="start" x="7.55029" y="-213" font-family="Times,serif" font-size="13.00">Models diagram</text>
<text text-anchor="start" x="7.55029" y="-197.4" font-family="Times,serif" font-size="13.00">Date: Aug 06 2011 &#45; 13:43</text>
<text text-anchor="start" x="7.55029" y="-181.8" font-family="Times,serif" font-size="13.00">Migration version: 20110719105320</text>
<text text-anchor="start" x="7.55029" y="-166.2" font-family="Times,serif" font-size="13.00">Generated by RailRoady 1.0.2</text>
<text text-anchor="start" x="7.55029" y="-150.6" font-family="Times,serif" font-size="13.00">http://railroady.prestonlee.com</text>
</g>
<!-- Category -->
<g id="node2" class="node"><title>Category</title>
<ellipse fill="none" stroke="black" cx="271" cy="-187" rx="46.1519" ry="18"/>
<text text-anchor="middle" x="271" y="-181.4" font-family="Times,serif" font-size="14.00">Category</text>
</g>
<!-- Place -->
<g id="node3" class="node"><title>Place</title>
<ellipse fill="none" stroke="black" cx="321" cy="-90" rx="31.4242" ry="18"/>
<text text-anchor="middle" x="321" y="-84.4" font-family="Times,serif" font-size="14.00">Place</text>
</g>
<!-- Tagging -->
<g id="node7" class="node"><title>Tagging</title>
<ellipse fill="none" stroke="black" cx="277" cy="-18" rx="42.316" ry="18"/>
<text text-anchor="middle" x="277" y="-12.4" font-family="Times,serif" font-size="14.00">Tagging</text>
</g>
<!-- Place&#45;&gt;Tagging -->
<g id="edge2" class="edge"><title>Place&#45;&gt;Tagging</title>
<path fill="none" stroke="black" d="M306.463,-65.8736C302.095,-58.9236 297.281,-51.265 292.833,-44.1885"/>
<ellipse fill="none" stroke="black" cx="308.666" cy="-69.3781" rx="4.00002" ry="4.00002"/>
<polygon fill="black" stroke="black" points="292.777,-44.0998 291.265,-33.2386 290.116,-39.8666 287.455,-35.6334 287.455,-35.6334 287.455,-35.6334 290.116,-39.8666 283.645,-38.0282 292.777,-44.0998 292.777,-44.0998"/>
</g>
<!-- Tag -->
<g id="node9" class="node"><title>Tag</title>
<ellipse fill="none" stroke="black" cx="365" cy="-18" rx="27" ry="18"/>
<text text-anchor="middle" x="365" y="-12.4" font-family="Times,serif" font-size="14.00">Tag</text>
</g>
<!-- Place&#45;&gt;Tag -->
<g id="edge4" class="edge"><title>Place&#45;&gt;Tag</title>
<path fill="none" stroke="black" d="M336.527,-64.2975C340.709,-57.6446 345.233,-50.4468 349.418,-43.7892"/>
<polygon fill="black" stroke="black" points="336.527,-64.2983 327.395,-70.3699 333.866,-68.5315 331.205,-72.7646 331.205,-72.7646 331.205,-72.7646 333.866,-68.5315 335.015,-75.1594 336.527,-64.2983 336.527,-64.2983"/>
<polygon fill="black" stroke="black" points="349.529,-43.6137 358.66,-37.5421 352.189,-39.3805 354.85,-35.1473 354.85,-35.1473 354.85,-35.1473 352.189,-39.3805 351.04,-32.7525 349.529,-43.6137 349.529,-43.6137"/>
</g>
<!-- Profile -->
<g id="node4" class="node"><title>Profile</title>
<ellipse fill="none" stroke="black" cx="408" cy="-90" rx="36.1907" ry="18"/>
<text text-anchor="middle" x="408" y="-84.4" font-family="Times,serif" font-size="14.00">Profile</text>
</g>
<!-- User -->
<g id="node5" class="node"><title>User</title>
<ellipse fill="none" stroke="black" cx="365" cy="-187" rx="28.9087" ry="18"/>
<text text-anchor="middle" x="365" y="-181.4" font-family="Times,serif" font-size="14.00">User</text>
</g>
<!-- User&#45;&gt;Place -->
<g id="edge6" class="edge"><title>User&#45;&gt;Place</title>
<path fill="none" stroke="black" d="M353.92,-162.078C347.532,-148.286 339.499,-130.942 332.967,-116.839"/>
<ellipse fill="none" stroke="black" cx="355.655" cy="-165.823" rx="4.00002" ry="4.00002"/>
<polygon fill="black" stroke="black" points="332.927,-116.751 332.807,-105.786 330.825,-112.214 328.724,-107.677 328.724,-107.677 328.724,-107.677 330.825,-112.214 324.641,-109.568 332.927,-116.751 332.927,-116.751"/>
</g>
<!-- User&#45;&gt;Profile -->
<g id="edge8" class="edge"><title>User&#45;&gt;Profile</title>
<path fill="none" stroke="black" d="M375.828,-162.078C382.311,-147.756 390.527,-129.602 397.034,-115.226"/>
<ellipse fill="none" stroke="black" cx="374.139" cy="-165.808" rx="4.00002" ry="4.00002"/>
<ellipse fill="black" stroke="black" cx="398.802" cy="-111.321" rx="4.00002" ry="4.00002"/>
</g>
</g>
</svg>
