<?xml version="1.0" encoding="UTF-8" standalone="no"?>
<!DOCTYPE svg PUBLIC "-//W3C//DTD SVG 1.1//EN"
 "http://www.w3.org/Graphics/SVG/1.1/DTD/svg11.dtd">
<!-- Generated by graphviz version 2.28.0 (20110509.1545)
 -->
<!-- Title: models_diagram Pages: 1 -->
<svg width="612pt" height="488pt"
 viewBox="0.00 0.00 612.00 488.00" xmlns="http://www.w3.org/2000/svg" xmlns:xlink="http://www.w3.org/1999/xlink">
<g id="graph1" class="graph" transform="scale(1 1) rotate(0) translate(4 484)">
<title>models_diagram</title>
<polygon fill="white" stroke="white" points="-4,5 -4,-484 609,-484 609,5 -4,5"/>
<!-- _diagram_info -->
<g id="node1" class="node"><title>_diagram_info</title>
<text text-anchor="start" x="7.55029" y="-455" font-family="Times,serif" font-size="13.00">Models diagram</text>
<text text-anchor="start" x="7.55029" y="-439.4" font-family="Times,serif" font-size="13.00">Date: Aug 06 2011 &#45; 13:43</text>
<text text-anchor="start" x="7.55029" y="-423.8" font-family="Times,serif" font-size="13.00">Migration version: 20110719105320</text>
<text text-anchor="start" x="7.55029" y="-408.2" font-family="Times,serif" font-size="13.00">Generated by RailRoady 1.0.2</text>
<text text-anchor="start" x="7.55029" y="-392.6" font-family="Times,serif" font-size="13.00">http://railroady.prestonlee.com</text>
</g>
<!-- Category -->
<g id="node2" class="node"><title>Category</title>
<polyline fill="none" stroke="black" points="236.495,-387.4 345.505,-387.4 "/>
<path fill="none" stroke="black" d="M345.505,-387.4C351.505,-387.4 357.505,-393.4 357.505,-399.4"/>
<polyline fill="none" stroke="black" points="357.505,-399.4 357.505,-458.6 "/>
<path fill="none" stroke="black" d="M357.505,-458.6C357.505,-464.6 351.505,-470.6 345.505,-470.6"/>
<polyline fill="none" stroke="black" points="345.505,-470.6 236.495,-470.6 "/>
<path fill="none" stroke="black" d="M236.495,-470.6C230.495,-470.6 224.495,-464.6 224.495,-458.6"/>
<polyline fill="none" stroke="black" points="224.495,-458.6 224.495,-399.4 "/>
<path fill="none" stroke="black" d="M224.495,-399.4C224.495,-393.4 230.495,-387.4 236.495,-387.4"/>
<text text-anchor="middle" x="291" y="-452.6" font-family="Times,serif" font-size="14.00">Category</text>
<polyline fill="none" stroke="black" points="224.495,-445.8 357.505,-445.8 "/>
<text text-anchor="start" x="232.495" y="-427.8" font-family="Times,serif" font-size="14.00">name :string</text>
<text text-anchor="start" x="232.495" y="-411" font-family="Times,serif" font-size="14.00">created_at :datetime</text>
<text text-anchor="start" x="232.495" y="-394.2" font-family="Times,serif" font-size="14.00">updated_at :datetime</text>
</g>
<!-- Place -->
<g id="node3" class="node"><title>Place</title>
<polyline fill="none" stroke="black" points="294.05,-73 441.95,-73 "/>
<path fill="none" stroke="black" d="M441.95,-73C447.95,-73 453.95,-79 453.95,-85"/>
<polyline fill="none" stroke="black" points="453.95,-85 453.95,-329 "/>
<path fill="none" stroke="black" d="M453.95,-329C453.95,-335 447.95,-341 441.95,-341"/>
<polyline fill="none" stroke="black" points="441.95,-341 294.05,-341 "/>
<path fill="none" stroke="black" d="M294.05,-341C288.05,-341 282.05,-335 282.05,-329"/>
<polyline fill="none" stroke="black" points="282.05,-329 282.05,-85 "/>
<path fill="none" stroke="black" d="M282.05,-85C282.05,-79 288.05,-73 294.05,-73"/>
<text text-anchor="middle" x="368" y="-323" font-family="Times,serif" font-size="14.00">Place</text>
<polyline fill="none" stroke="black" points="282.05,-316.2 453.95,-316.2 "/>
<text text-anchor="start" x="290.05" y="-298.2" font-family="Times,serif" font-size="14.00">title :string</text>
<text text-anchor="start" x="290.05" y="-281.4" font-family="Times,serif" font-size="14.00">desc :text</text>
<text text-anchor="start" x="290.05" y="-264.6" font-family="Times,serif" font-size="14.00">address :text</text>
<text text-anchor="start" x="290.05" y="-247.8" font-family="Times,serif" font-size="14.00">phone :string</text>
<text text-anchor="start" x="290.05" y="-231" font-family="Times,serif" font-size="14.00">longitude :float</text>
<text text-anchor="start" x="290.05" y="-214.2" font-family="Times,serif" font-size="14.00">latitude :float</text>
<text text-anchor="start" x="290.05" y="-197.4" font-family="Times,serif" font-size="14.00">rating :integer</text>
<text text-anchor="start" x="290.05" y="-180.6" font-family="Times,serif" font-size="14.00">published_at :datetime</text>
<text text-anchor="start" x="290.05" y="-163.8" font-family="Times,serif" font-size="14.00">created_at :datetime</text>
<text text-anchor="start" x="290.05" y="-147" font-family="Times,serif" font-size="14.00">updated_at :datetime</text>
<text text-anchor="start" x="290.05" y="-130.2" font-family="Times,serif" font-size="14.00">photo_file_name :string</text>
<text text-anchor="start" x="290.05" y="-113.4" font-family="Times,serif" font-size="14.00">photo_content_type :string</text>
<text text-anchor="start" x="290.05" y="-96.6" font-family="Times,serif" font-size="14.00">photo_file_size :integer</text>
<text text-anchor="start" x="290.05" y="-79.8" font-family="Times,serif" font-size="14.00">photo_updated_at :datetime</text>
</g>
<!-- Tagging -->
<g id="node7" class="node"><title>Tagging</title>
<ellipse fill="none" stroke="black" cx="324" cy="-18" rx="42.316" ry="18"/>
<text text-anchor="middle" x="324" y="-12.4" font-family="Times,serif" font-size="14.00">Tagging</text>
</g>
<!-- Place&#45;&gt;Tagging -->
<g id="edge2" class="edge"><title>Place&#45;&gt;Tagging</title>
<path fill="none" stroke="black" d="M334.795,-64.8804C333.186,-58.0418 331.686,-51.6668 330.347,-45.9743"/>
<ellipse fill="none" stroke="black" cx="335.751" cy="-68.9436" rx="4.00001" ry="4.00001"/>
<polygon fill="black" stroke="black" points="330.273,-45.6603 332.363,-34.8954 329.128,-40.7932 327.983,-35.9261 327.983,-35.9261 327.983,-35.9261 329.128,-40.7932 323.602,-36.9568 330.273,-45.6603 330.273,-45.6603"/>
</g>
<!-- Tag -->
<g id="node9" class="node"><title>Tag</title>
<ellipse fill="none" stroke="black" cx="412" cy="-18" rx="27" ry="18"/>
<text text-anchor="middle" x="412" y="-12.4" font-family="Times,serif" font-size="14.00">Tag</text>
</g>
<!-- Place&#45;&gt;Tag -->
<g id="edge4" class="edge"><title>Place&#45;&gt;Tag</title>
<path fill="none" stroke="black" d="M401.659,-62.9507C403.117,-56.7543 404.479,-50.9661 405.705,-45.7557"/>
<polygon fill="black" stroke="black" points="401.623,-63.1031 394.952,-71.8066 400.478,-67.9702 399.332,-72.8373 399.332,-72.8373 399.332,-72.8373 400.478,-67.9702 403.713,-73.868 401.623,-63.1031 401.623,-63.1031"/>
<polygon fill="black" stroke="black" points="405.727,-45.6603 412.398,-36.9568 406.872,-40.7932 408.017,-35.9261 408.017,-35.9261 408.017,-35.9261 406.872,-40.7932 403.637,-34.8954 405.727,-45.6603 405.727,-45.6603"/>
</g>
<!-- Profile -->
<g id="node4" class="node"><title>Profile</title>
<polyline fill="none" stroke="black" points="483.495,-148.6 592.505,-148.6 "/>
<path fill="none" stroke="black" d="M592.505,-148.6C598.505,-148.6 604.505,-154.6 604.505,-160.6"/>
<polyline fill="none" stroke="black" points="604.505,-160.6 604.505,-253.4 "/>
<path fill="none" stroke="black" d="M604.505,-253.4C604.505,-259.4 598.505,-265.4 592.505,-265.4"/>
<polyline fill="none" stroke="black" points="592.505,-265.4 483.495,-265.4 "/>
<path fill="none" stroke="black" d="M483.495,-265.4C477.495,-265.4 471.495,-259.4 471.495,-253.4"/>
<polyline fill="none" stroke="black" points="471.495,-253.4 471.495,-160.6 "/>
<path fill="none" stroke="black" d="M471.495,-160.6C471.495,-154.6 477.495,-148.6 483.495,-148.6"/>
<text text-anchor="middle" x="538" y="-247.4" font-family="Times,serif" font-size="14.00">Profile</text>
<polyline fill="none" stroke="black" points="471.495,-240.6 604.505,-240.6 "/>
<text text-anchor="start" x="479.495" y="-222.6" font-family="Times,serif" font-size="14.00">name :string</text>
<text text-anchor="start" x="479.495" y="-205.8" font-family="Times,serif" font-size="14.00">birthday :string</text>
<text text-anchor="start" x="479.495" y="-189" font-family="Times,serif" font-size="14.00">bio :text</text>
<text text-anchor="start" x="479.495" y="-172.2" font-family="Times,serif" font-size="14.00">created_at :datetime</text>
<text text-anchor="start" x="479.495" y="-155.4" font-family="Times,serif" font-size="14.00">updated_at :datetime</text>
</g>
<!-- User -->
<g id="node5" class="node"><title>User</title>
<polyline fill="none" stroke="black" points="387.981,-379 518.019,-379 "/>
<path fill="none" stroke="black" d="M518.019,-379C524.019,-379 530.019,-385 530.019,-391"/>
<polyline fill="none" stroke="black" points="530.019,-391 530.019,-467 "/>
<path fill="none" stroke="black" d="M530.019,-467C530.019,-473 524.019,-479 518.019,-479"/>
<polyline fill="none" stroke="black" points="518.019,-479 387.981,-479 "/>
<path fill="none" stroke="black" d="M387.981,-479C381.981,-479 375.981,-473 375.981,-467"/>
<polyline fill="none" stroke="black" points="375.981,-467 375.981,-391 "/>
<path fill="none" stroke="black" d="M375.981,-391C375.981,-385 381.981,-379 387.981,-379"/>
<text text-anchor="middle" x="453" y="-461" font-family="Times,serif" font-size="14.00">User</text>
<polyline fill="none" stroke="black" points="375.981,-454.2 530.019,-454.2 "/>
<text text-anchor="start" x="383.981" y="-436.2" font-family="Times,serif" font-size="14.00">email :string</text>
<text text-anchor="start" x="383.981" y="-419.4" font-family="Times,serif" font-size="14.00">hashed_password :string</text>
<text text-anchor="start" x="383.981" y="-402.6" font-family="Times,serif" font-size="14.00">created_at :datetime</text>
<text text-anchor="start" x="383.981" y="-385.8" font-family="Times,serif" font-size="14.00">updated_at :datetime</text>
</g>
<!-- User&#45;&gt;Place -->
<g id="edge6" class="edge"><title>User&#45;&gt;Place</title>
<path fill="none" stroke="black" d="M431.039,-371.161C428.538,-364.686 425.911,-357.888 423.209,-350.895"/>
<ellipse fill="none" stroke="black" cx="432.589" cy="-375.17" rx="4.00001" ry="4.00001"/>
<polygon fill="black" stroke="black" points="423.087,-350.577 423.68,-339.628 421.285,-345.913 419.483,-341.249 419.483,-341.249 419.483,-341.249 421.285,-345.913 415.285,-342.871 423.087,-350.577 423.087,-350.577"/>
</g>
<!-- User&#45;&gt;Profile -->
<g id="edge8" class="edge"><title>User&#45;&gt;Profile</title>
<path fill="none" stroke="black" d="M474.924,-371.255C486.494,-341.311 500.744,-304.427 512.771,-273.298"/>
<ellipse fill="none" stroke="black" cx="473.411" cy="-375.17" rx="4.00001" ry="4.00001"/>
<ellipse fill="black" stroke="black" cx="514.336" cy="-269.247" rx="4.00001" ry="4.00001"/>
</g>
</g>
</svg>
